<?xml version="1.0" encoding="UTF-8" standalone="no"?>
<svg
   viewBox="0 0 512 284.39999"
   version="1.1"
   id="svg1"
   sodipodi:docname="lastfm.svg"
   width="512"
   height="284.39999"
   inkscape:version="1.3.2 (091e20e, 2023-11-25, custom)"
   xmlns:inkscape="http://www.inkscape.org/namespaces/inkscape"
   xmlns:sodipodi="http://sodipodi.sourceforge.net/DTD/sodipodi-0.dtd"
   xmlns="http://www.w3.org/2000/svg"
   xmlns:svg="http://www.w3.org/2000/svg">
  <defs
     id="defs1" />
  <sodipodi:namedview
     id="namedview1"
     pagecolor="#ffffff"
     bordercolor="#000000"
     borderopacity="0.25"
     inkscape:showpageshadow="2"
     inkscape:pageopacity="0.0"
     inkscape:pagecheckerboard="0"
     inkscape:deskcolor="#d1d1d1"
     inkscape:zoom="3.6933594"
     inkscape:cx="255.86462"
     inkscape:cy="142.28239"
     inkscape:window-width="3840"
     inkscape:window-height="2126"
     inkscape:window-x="-11"
     inkscape:window-y="-11"
     inkscape:window-maximized="1"
     inkscape:current-layer="svg1" />
  <!--! Font Awesome Free 6.5.1 by @fontawesome - https://fontawesome.com License - https://fontawesome.com/license/free (Icons: CC BY 4.0, Fonts: SIL OFL 1.1, Code: MIT License) Copyright 2023 Fonticons, Inc. -->
  <path
     d="m 225.8,253.3 -18.8,-51 c 0,0 -30.5,34 -76.2,34 -40.5,0 -69.2,-35.2 -69.2,-91.5 0,-72.1 36.4,-97.9 72.1,-97.9 66.5,0 74.8,53.3 100.9,134.9 18.8,56.9 54,102.6 155.4,102.6 72.7,0 122,-22.3 122,-80.9 0,-72.9 -62.7,-80.6 -115,-92.1 -25.8,-5.9 -33.4,-16.4 -33.4,-34 0,-19.9 15.8,-31.7 41.6,-31.7 28.2,0 43.4,10.6 45.7,35.8 l 58.6,-7 C 504.8,21.7 468.4,0 408.6,0 355.8,0 304.2,19.9 304.2,83.9 c 0,39.9 19.4,65.1 68,76.8 44.9,10.6 79.8,13.8 79.8,45.7 0,21.7 -21.1,30.5 -61,30.5 -59.2,0 -83.9,-31.1 -97.9,-73.9 C 261.1,66.2 249.5,0 131.8,0 45.7,0 0,54.5 0,147.2 c 0,89.1 45.7,137.2 127.9,137.2 66.2,0 97.9,-31.1 97.9,-31.1 z"
     id="path1" />
</svg>
