<?xml version="1.0" encoding="UTF-8" standalone="no"?>
<svg
   version="1.1"
   id="Layer_1"
   x="0px"
   y="0px"
   width="100%"
   viewBox="0 0 128 128"
   enable-background="new 0 0 128 128"
   xml:space="preserve"
   sodipodi:docname="shadertoy.svg"
   inkscape:version="1.3.2 (091e20e, 2023-11-25, custom)"
   xmlns:inkscape="http://www.inkscape.org/namespaces/inkscape"
   xmlns:sodipodi="http://sodipodi.sourceforge.net/DTD/sodipodi-0.dtd"
   xmlns="http://www.w3.org/2000/svg"
   xmlns:svg="http://www.w3.org/2000/svg"><defs
   id="defs2" /><sodipodi:namedview
   id="namedview2"
   pagecolor="#ffffff"
   bordercolor="#000000"
   borderopacity="0.25"
   inkscape:showpageshadow="2"
   inkscape:pageopacity="0.0"
   inkscape:pagecheckerboard="0"
   inkscape:deskcolor="#d1d1d1"
   inkscape:zoom="14.773438"
   inkscape:cx="40.68112"
   inkscape:cy="61.427814"
   inkscape:window-width="3840"
   inkscape:window-height="2126"
   inkscape:window-x="-11"
   inkscape:window-y="-11"
   inkscape:window-maximized="1"
   inkscape:current-layer="Layer_1" />

<path
   fill="#C8C8C8"
   opacity="1.000000"
   stroke="none"
   d=" M53.228737,112.003326   C61.597488,115.568169 74.812439,109.431122 76.032295,96.143425   C77.043083,85.132996 73.192017,76.143616 65.782532,68.173729   C60.104424,62.066162 54.437195,55.832470 49.656738,49.028431   C36.088184,29.716272 45.744705,9.981577 67.392097,4.205688   C76.536140,1.765903 86.095802,2.060530 95.522949,4.905688   C108.020081,8.677378 111.070862,24.510408 104.264671,34.180199   C101.630615,37.922474 93.799583,40.233204 89.494850,38.817940   C86.251076,37.751484 85.629715,35.332081 87.700661,32.731041   C89.291962,30.732418 90.920662,28.636837 91.919174,26.319948   C93.865082,21.804741 93.791054,16.897680 89.929108,13.688090   C85.480553,9.990987 79.972916,10.277160 74.788887,12.736246   C69.999123,15.008309 68.334778,19.079210 67.914803,24.225821   C67.309280,31.646326 70.749840,37.076614 75.535370,42.031788   C82.338989,49.076588 90.139015,55.387646 95.834381,63.231300   C112.826500,86.632866 101.967026,120.318985 70.262985,125.979912   C60.155300,127.784691 49.780346,128.523315 40.178478,124.753586   C31.794601,121.462036 25.799042,115.071259 23.933704,105.496521   C22.101343,96.091042 24.543797,87.952827 29.934977,80.362846   C35.973095,71.862068 52.286575,68.718971 58.652466,76.265373   C60.326286,78.249603 61.298027,80.826073 62.747108,83.406464   C50.752449,85.195717 44.677101,89.126160 44.002037,95.095551   C42.934563,104.534889 45.421394,109.306931 53.228737,112.003326  z"
   id="path2"
   style="fill:#000000;fill-opacity:1" />
</svg>
