<?xml version="1.0" encoding="UTF-8" standalone="no"?>
<svg
   viewBox="0 0 639.90021 277.89999"
   version="1.1"
   id="svg1"
   sodipodi:docname="soundcloud.svg"
   width="639.90021"
   height="277.89999"
   inkscape:version="1.3.2 (091e20e, 2023-11-25, custom)"
   xmlns:inkscape="http://www.inkscape.org/namespaces/inkscape"
   xmlns:sodipodi="http://sodipodi.sourceforge.net/DTD/sodipodi-0.dtd"
   xmlns="http://www.w3.org/2000/svg"
   xmlns:svg="http://www.w3.org/2000/svg">
  <defs
     id="defs1" />
  <sodipodi:namedview
     id="namedview1"
     pagecolor="#ffffff"
     bordercolor="#000000"
     borderopacity="0.25"
     inkscape:showpageshadow="2"
     inkscape:pageopacity="0.0"
     inkscape:pagecheckerboard="0"
     inkscape:deskcolor="#d1d1d1"
     inkscape:zoom="3.6933594"
     inkscape:cx="320.03384"
     inkscape:cy="139.03332"
     inkscape:window-width="3840"
     inkscape:window-height="2126"
     inkscape:window-x="-11"
     inkscape:window-y="-11"
     inkscape:window-maximized="1"
     inkscape:current-layer="svg1" />
  <!--! Font Awesome Free 6.5.2 by @fontawesome - https://fontawesome.com License - https://fontawesome.com/license/free (Icons: CC BY 4.0, Fonts: SIL OFL 1.1, Code: MIT License) Copyright 2024 Fonticons, Inc. -->
  <path
     d="m 111.4,139.2 5.8,65 -5.8,68.3 c -0.3,2.5 -2.2,4.4 -4.4,4.4 -2.2,0 -4.2,-1.9 -4.2,-4.4 l -5.6,-68.3 5.6,-65 c 0,-2.2 1.9,-4.2 4.2,-4.2 2.2,0 4.1,2 4.4,4.2 z m 21.4,-45.6 c -2.8,0 -4.7,2.2 -5,5 l -5,105.6 5,68.3 c 0.3,2.8 2.2,5 5,5 2.5,0 4.7,-2.2 4.7,-5 l 5.8,-68.3 -5.8,-105.6 c 0,-2.8 -2.2,-5 -4.7,-5 z m 25.5,-24.1 c -3.1,0 -5.3,2.2 -5.6,5.3 l -4.4,130 4.4,67.8 c 0.3,3.1 2.5,5.3 5.6,5.3 2.8,0 5.3,-2.2 5.3,-5.3 l 5.3,-67.8 -5.3,-130 c 0,-3.1 -2.5,-5.3 -5.3,-5.3 z M 7.2,166.1 c -1.4,0 -2.2,1.1 -2.5,2.5 l -4.7,35.6 4.7,35 c 0.3,1.4 1.1,2.5 2.5,2.5 1.4,0 2.2,-1.1 2.5,-2.5 l 5.6,-35 -5.6,-35.6 c -0.3,-1.4 -1.1,-2.5 -2.5,-2.5 z m 23.6,-21.9 c -1.4,0 -2.5,1.1 -2.5,2.5 l -6.4,57.5 6.4,56.1 c 0,1.7 1.1,2.8 2.5,2.8 1.4,0 2.5,-1.1 2.8,-2.5 l 7.2,-56.4 -7.2,-57.5 c -0.3,-1.4 -1.4,-2.5 -2.8,-2.5 z m 25.3,-11.4 c -1.7,0 -3.1,1.4 -3.3,3.3 L 47,204.2 52.8,270 c 0.3,1.7 1.7,3.1 3.3,3.1 1.7,0 3.1,-1.4 3.1,-3.1 l 6.9,-65.8 -6.9,-68.1 c 0,-1.9 -1.4,-3.3 -3.1,-3.3 z m 25.3,-2.2 c -1.9,0 -3.6,1.4 -3.6,3.6 l -5.8,70 5.8,67.8 c 0,2.2 1.7,3.6 3.6,3.6 1.9,0 3.6,-1.4 3.9,-3.6 l 6.4,-67.8 -6.4,-70 c -0.3,-2.2 -2,-3.6 -3.9,-3.6 z M 322.8,19.7 c -1.1,-0.8 -2.8,-1.4 -4.2,-1.4 -2.2,0 -4.2,0.8 -5.6,1.9 -1.9,1.7 -3.1,4.2 -3.3,6.7 v 0.8 l -3.3,176.7 1.7,32.5 1.7,31.7 c 0.3,4.7 4.2,8.6 8.9,8.6 4.7,0 8.6,-3.9 8.6,-8.6 l 3.9,-64.2 -3.9,-177.5 c -0.4,-3 -2,-5.8 -4.5,-7.2 z M 296.1,35 c -1.4,-0.8 -2.8,-1.4 -4.4,-1.4 -1.6,0 -3.1,0.6 -4.4,1.4 -2.2,1.4 -3.6,3.9 -3.6,6.7 l -0.3,1.7 -2.8,160.8 c 0,0 0,0.3 3.1,65.6 v 0.3 c 0,1.7 0.6,3.3 1.7,4.7 1.7,1.9 3.9,3.1 6.4,3.1 2.2,0 4.2,-1.1 5.6,-2.5 1.7,-1.4 2.5,-3.3 2.5,-5.6 l 0.3,-6.7 3.1,-58.6 L 300,41.7 c -0.3,-2.8 -1.7,-5.3 -3.9,-6.7 z M 184.7,57.5 c -3.1,0 -5.8,2.8 -5.8,6.1 l -4.4,140.6 4.4,67.2 c 0.3,3.3 2.8,5.8 5.8,5.8 3.3,0 5.8,-2.5 6.1,-5.8 l 5,-67.2 -5,-140.6 c -0.2,-3.3 -2.7,-6.1 -6.1,-6.1 z m 376.7,62.8 c -10.8,0 -21.1,2.2 -30.6,6.1 C 524.4,55.6 465,0 392.5,0 c -17.8,0 -35,3.3 -50.3,9.4 -6.1,2.2 -7.8,4.4 -7.8,9.2 v 249.7 c 0,5 3.9,8.6 8.6,9.2 h 218.3 c 43.3,0 78.6,-35 78.6,-78.3 0.1,-43.6 -35.2,-78.9 -78.5,-78.9 z M 264.7,60 c -4.2,0 -7.5,3.3 -7.8,7.8 l -3.3,136.7 3.3,65.6 c 0.3,4.2 3.6,7.5 7.8,7.5 4.2,0 7.5,-3.3 7.5,-7.5 l 3.9,-65.6 -3.9,-136.7 C 271.9,63.3 268.9,60 264.7,60 Z m -53.6,-7.8 c -3.3,0 -6.4,3.1 -6.4,6.7 l -3.9,145.3 3.9,66.9 c 0.3,3.6 3.1,6.4 6.4,6.4 3.6,0 6.4,-2.8 6.7,-6.4 l 4.4,-66.9 -4.4,-145.3 c -0.3,-3.6 -3.1,-6.7 -6.7,-6.7 z m 26.7,3.4 c -3.9,0 -6.9,3.1 -6.9,6.9 l -3.9,141.7 3.9,66.4 c 0.3,3.9 3.1,6.9 6.9,6.9 3.8,0 6.9,-3.1 6.9,-6.9 l 4.2,-66.4 -4.2,-141.7 c 0,-3.9 -3,-6.9 -6.9,-6.9 z"
     id="path1" />
</svg>
