<?xml version="1.0" encoding="UTF-8" standalone="no"?>
<svg
   version="1.0"
   width="529"
   height="601"
   viewBox="0 0 529 601"
   preserveAspectRatio="xMidYMid"
   id="svg1"
   sodipodi:docname="substack-logo.svg"
   inkscape:version="1.3.2 (091e20e, 2023-11-25, custom)"
   xmlns:inkscape="http://www.inkscape.org/namespaces/inkscape"
   xmlns:sodipodi="http://sodipodi.sourceforge.net/DTD/sodipodi-0.dtd"
   xmlns="http://www.w3.org/2000/svg"
   xmlns:svg="http://www.w3.org/2000/svg">
  <defs
     id="defs1" />
  <sodipodi:namedview
     id="namedview1"
     pagecolor="#ffffff"
     bordercolor="#000000"
     borderopacity="0.25"
     inkscape:showpageshadow="2"
     inkscape:pageopacity="0.0"
     inkscape:pagecheckerboard="0"
     inkscape:deskcolor="#d1d1d1"
     inkscape:zoom="3.120462"
     inkscape:cx="267.90905"
     inkscape:cy="299.15442"
     inkscape:window-width="3840"
     inkscape:window-height="2126"
     inkscape:window-x="-11"
     inkscape:window-y="-11"
     inkscape:window-maximized="1"
     inkscape:current-layer="svg1" />
  <path
     style="fill:#000000;fill-opacity:1;stroke:none"
     d="M 0,0 V 71 H 529 V 0 H 0 m 0,135 v 72 H 529 V 135 H 0 m 0,135 v 331 c 21.6208,-6.24 43.3422,-23.173 63,-34.14 l 132,-73.72 c 16.343,-9.118 32.731,-18.172 49,-27.421 5.318,-3.023 14.313,-10.547 20.576,-10.433 6.172,0.113 15.135,7.691 20.424,10.713 15.238,8.709 30.615,17.246 46,25.695 46.513,25.545 92.488,52.067 139,77.612 17.985,9.877 38.997,27.117 59,31.694 V 270 Z"
     id="path1" />
</svg>
